<svg xmlns="http://www.w3.org/2000/svg" viewBox="0 0 64 64">
<title>MO Rewards</title>
<defs>
<linearGradient id="bg" x1="0" y1="0" x2="0" y2="1"><stop stop-color="#ff9d6a"/><stop offset="1" stop-color="#ef6a55"/></linearGradient>
<linearGradient id="bgs" x1="0" y1="0" x2="0" y2="1"><stop stop-color="#fff" stop-opacity=".12"/><stop offset=".4" stop-color="#fff" stop-opacity="0"/></linearGradient>
<linearGradient id="tk" x1="0" y1="0" x2="1" y2="1"><stop stop-color="#ffffff"/><stop offset="1" stop-color="#eef4ff"/></linearGradient>
<linearGradient id="coin" gradientUnits="userSpaceOnUse" x1="14" y1="24" x2="28" y2="40"><stop stop-color="#5fb0ff"/><stop offset="1" stop-color="#2f5ff0"/></linearGradient>
<mask id="notch"><rect width="64" height="64" fill="#fff"/><circle cx="10" cy="32" r="4.2" fill="#000"/><circle cx="54" cy="32" r="4.2" fill="#000"/></mask>
<clipPath id="tc"><rect width="64" height="64" rx="14.5"/></clipPath>
<linearGradient id="gl" x1="0" y1="0" x2="0" y2="1"><stop stop-color="#fff" stop-opacity=".38"/><stop offset=".6" stop-color="#fff" stop-opacity=".06"/><stop offset="1" stop-color="#fff" stop-opacity="0"/></linearGradient>
<linearGradient id="rm" x1="0" y1="0" x2="1" y2="1"><stop stop-color="#fff" stop-opacity=".95"/><stop offset=".3" stop-color="#fff" stop-opacity=".18"/><stop offset=".7" stop-color="#fff" stop-opacity=".08"/><stop offset="1" stop-color="#fff" stop-opacity=".7"/></linearGradient>
<linearGradient id="bs" x1="0" y1="0" x2="0" y2="1"><stop offset=".7" stop-color="#7a2c12" stop-opacity="0"/><stop offset="1" stop-color="#7a2c12" stop-opacity=".14"/></linearGradient>
</defs>
<rect width="64" height="64" rx="14.5" fill="url(#bg)"/><rect width="64" height="32" rx="14.5" fill="url(#bgs)"/>
<g transform="rotate(-10 32 33)">
<rect x="10" y="20" width="44" height="26" rx="5" fill="#b5502f" opacity=".28" transform="translate(0 2)" mask="url(#notch)"/>
<rect x="10" y="19" width="44" height="26" rx="5" fill="url(#tk)" mask="url(#notch)"/>
<path d="M38 22.5v19" stroke="#ef8a6a" stroke-width="1.8" stroke-linecap="round" stroke-dasharray="0.1 3.6"/>
<circle cx="24.5" cy="32" r="8" fill="url(#coin)"/>
<path d="M20.9 32.2l2.6 2.6 4.7-5.2" fill="none" stroke="#fff" stroke-width="2.3" stroke-linecap="round" stroke-linejoin="round"/>
<path d="M42.5 28.5h6M42.5 32h6M42.5 35.5h4" stroke="#9fb3cc" stroke-width="1.8" stroke-linecap="round"/>
</g>
<g fill="#fff" opacity=".95"><path d="M50 9.5l1.3 3.4 3.4 1.3-3.4 1.3L50 18.9l-1.3-3.4-3.4-1.3 3.4-1.3z"/><path d="M13 49l.8 2 2 .8-2 .8-.8 2-.8-2-2-.8 2-.8z" opacity=".8"/></g>
<g clip-path="url(#tc)"><path d="M0 0H64V27C50 21.5 17 21.5 0 29Z" fill="url(#gl)"/><rect width="64" height="64" fill="url(#bs)"/></g>
<rect x=".6" y=".6" width="62.8" height="62.8" rx="13.9" fill="none" stroke="url(#rm)" stroke-width="1.2"/>
</svg>
